<!-- Generated by IcoMoon.io -->
<svg version="1.1" xmlns="http://www.w3.org/2000/svg" width="32" height="32" viewBox="0 0 32 32">
<title>ico-container</title>
<path fill="#439bf1" d="M16.048 29.251c-0.205-0-0.399-0.047-0.572-0.131l0.008 0.004-10.456-5.023c-0.441-0.218-0.74-0.664-0.743-1.18v-0.408c0-0.036 0-0.070 0.005-0.108v-13.646c0-0.528 0.313-0.984 0.764-1.191l0.008-0.003 10.45-4.698c0.159-0.074 0.344-0.117 0.54-0.117s0.381 0.043 0.548 0.12l-0.008-0.003 10.356 4.72c0.456 0.212 0.767 0.665 0.768 1.192v14.119c-0.002 0.514-0.299 0.959-0.73 1.174l-0.008 0.004-10.355 5.045c-0.167 0.083-0.364 0.132-0.573 0.132-0.001 0-0.001 0-0.002 0h0zM16.005 26.111l1.516-0.71 7.245-3.529v-12.045l-2.083-0.944h-0.013l-0.077-0.038-6.55-2.988-8.809 3.968v12.067l6.63 3.186z"></path>
<path fill="#439bf1" d="M21.862 17.958v-4.229c0.598-0.248 1.011-0.827 1.011-1.503 0-0.896-0.726-1.622-1.622-1.622-0.448 0-0.854 0.181-1.147 0.475v0l-2.547-1.161c0.010-0.057 0.017-0.126 0.019-0.195l0-0.003c0.001-0.018 0.001-0.039 0.001-0.060 0-0.897-0.727-1.624-1.624-1.624s-1.624 0.727-1.624 1.624c0 0.095 0.008 0.189 0.024 0.28l-0.001-0.010-2.585 1.163c-0.295-0.303-0.707-0.491-1.162-0.491-0.895 0-1.62 0.725-1.62 1.62 0 0.695 0.438 1.288 1.053 1.518l0.011 0.004v4.198c-0.628 0.232-1.068 0.826-1.068 1.522 0 0.894 0.725 1.619 1.619 1.619 0.42 0 0.803-0.16 1.090-0.422l-0.001 0.001 2.649 1.273c0.059 0.843 0.758 1.505 1.611 1.505 0.845 0 1.539-0.65 1.609-1.477l0-0.006 2.629-1.28c0.281 0.251 0.654 0.405 1.063 0.407h0c0.895-0.001 1.621-0.727 1.621-1.622 0-0.675-0.412-1.253-0.999-1.498l-0.011-0.004zM21.253 11.424c0.002 0 0.003-0 0.005-0 0.442 0 0.8 0.358 0.8 0.8 0 0.199-0.073 0.382-0.193 0.521l0.001-0.001c-0.036 0.043-0.076 0.082-0.119 0.115l-0.002 0.001-0.004 0.004c-0.038 0.030-0.081 0.057-0.127 0.080l-0.004 0.002-0.018 0.011c-0.037 0.017-0.081 0.033-0.127 0.046l-0.006 0.001c-0.011 0-0.021 0.008-0.032 0.010-0.052 0.012-0.112 0.019-0.173 0.020h-0c-0 0-0 0-0.001 0-0.444 0-0.804-0.36-0.804-0.804v0c0.001-0.052 0.006-0.104 0.016-0.153l-0.001 0.005c0-0.015 0.008-0.031 0.011-0.047 0.008-0.031 0.017-0.061 0.028-0.090 0.007-0.018 0.014-0.036 0.022-0.053 0.013-0.028 0.026-0.050 0.040-0.073l-0.002 0.003c0.011-0.018 0.021-0.038 0.034-0.055s0.019-0.022 0.028-0.034c0.037-0.046 0.077-0.087 0.122-0.123l0.001-0.001 0.023-0.019c0.024-0.018 0.052-0.036 0.081-0.053l0.027-0.015c0.027-0.015 0.059-0.030 0.092-0.043l0.006-0.002c0.082-0.032 0.177-0.052 0.276-0.052h0zM15.958 8.916c0.382 0 0.702 0.266 0.783 0.623l0.001 0.005c0.012 0.052 0.020 0.112 0.020 0.175v0c-0.001 0.052-0.006 0.102-0.016 0.151l0.001-0.005c0 0.014-0.006 0.028-0.010 0.042-0.010 0.040-0.021 0.073-0.033 0.105l0.002-0.006c-0.006 0.014-0.010 0.027-0.016 0.041-0.020 0.046-0.042 0.085-0.067 0.122l0.002-0.003c-0.004 0.006-0.010 0.012-0.014 0.018-0.023 0.033-0.046 0.062-0.070 0.089l0.001-0.001c-0.012 0.012-0.024 0.024-0.037 0.036-0.021 0.019-0.044 0.038-0.068 0.055l-0.002 0.001c-0.014 0.011-0.028 0.021-0.043 0.031-0.032 0.022-0.070 0.042-0.109 0.060l-0.005 0.002c-0.094 0.042-0.203 0.066-0.318 0.066-0.107 0-0.208-0.021-0.302-0.059l0.005 0.002c-0.025-0.010-0.048-0.023-0.070-0.035l-0.050-0.027c-0.022-0.013-0.043-0.028-0.063-0.043-0.018-0.014-0.034-0.027-0.050-0.041l0 0c-0.019-0.015-0.036-0.031-0.052-0.047l-0-0c-0.028-0.029-0.055-0.061-0.079-0.095l-0.002-0.002c-0.008-0.012-0.015-0.026-0.022-0.039-0.015-0.023-0.030-0.051-0.044-0.080l-0.002-0.006c-0.007-0.015-0.012-0.031-0.019-0.047-0.011-0.026-0.021-0.057-0.028-0.089l-0.001-0.005c-0.004-0.015-0.008-0.029-0.011-0.045-0.009-0.045-0.015-0.097-0.015-0.15s0.006-0.105 0.016-0.154l-0.001 0.005c0.074-0.372 0.397-0.65 0.786-0.652h0zM14.8 10.856c0.294 0.301 0.703 0.488 1.157 0.488 0.458 0 0.872-0.191 1.166-0.498l0.001-0.001 2.529 1.153c-0.013 0.068-0.021 0.148-0.024 0.229l-0 0.002c0 0.113 0.012 0.224 0.035 0.33l-0.002-0.011-2.494 1.214c-0.296-0.343-0.731-0.559-1.216-0.559-0.479 0-0.909 0.21-1.202 0.543l-0.001 0.002-2.545-1.222c0.018-0.089 0.029-0.192 0.030-0.297v-0.001c-0.002-0.076-0.010-0.148-0.022-0.219l0.001 0.009zM16.741 14.987c-0.012 0.056-0.027 0.105-0.047 0.152l0.002-0.006c-0.047 0.112-0.116 0.208-0.201 0.285l-0.001 0.001c-0.069 0.064-0.15 0.117-0.239 0.154l-0.005 0.002c-0.009 0.004-0.020 0.007-0.032 0.010l-0.002 0.001c-0.029 0.012-0.065 0.023-0.103 0.032l-0.006 0.001c-0.047 0.010-0.101 0.015-0.156 0.015h-0c-0.052-0-0.102-0.006-0.15-0.016l0.005 0.001c-0.022-0.004-0.044-0.011-0.066-0.017s-0.044-0.012-0.066-0.020c-0.033-0.012-0.060-0.024-0.086-0.038l0.004 0.002-0.032-0.017c-0.035-0.019-0.064-0.038-0.092-0.059l0.002 0.002c-0.123-0.093-0.218-0.218-0.271-0.363l-0.002-0.006c-0.014-0.036-0.026-0.079-0.035-0.124l-0.001-0.006c-0.008-0.043-0.014-0.092-0.014-0.143v-0c0.001-0.070 0.010-0.137 0.028-0.2l-0.001 0.006c0.004-0.016 0.009-0.031 0.014-0.047 0.018-0.056 0.039-0.105 0.065-0.15l-0.002 0.004c0.005-0.008 0.009-0.018 0.015-0.027 0.071-0.116 0.167-0.21 0.281-0.277l0.004-0.002c0.115-0.070 0.255-0.112 0.404-0.112 0.158 0 0.305 0.047 0.428 0.127l-0.003-0.002c0.108 0.069 0.196 0.16 0.26 0.267l0.002 0.004c0.008 0.012 0.015 0.026 0.022 0.039 0.019 0.037 0.037 0.081 0.052 0.126l0.002 0.006c0.005 0.016 0.011 0.032 0.015 0.049 0.015 0.057 0.024 0.122 0.024 0.189v0.001c-0 0.056-0.006 0.111-0.016 0.164l0.001-0.005zM9.806 12.231c0-0.001 0-0.002 0-0.003 0-0.443 0.359-0.802 0.802-0.802 0.108 0 0.212 0.022 0.306 0.060l-0.005-0.002c0.026 0.011 0.047 0.021 0.067 0.032l-0.003-0.002c0.020 0.011 0.041 0.020 0.059 0.032s0.039 0.026 0.058 0.040 0.037 0.029 0.055 0.046 0.032 0.028 0.047 0.043c0.029 0.030 0.055 0.062 0.080 0.097l0.002 0.002c0.007 0.011 0.012 0.022 0.019 0.032 0.016 0.025 0.032 0.055 0.047 0.086l0.002 0.006c0.007 0.015 0.012 0.031 0.018 0.046 0.010 0.025 0.020 0.057 0.029 0.089l0.001 0.006c0 0.015 0.008 0.029 0.010 0.044 0.009 0.044 0.015 0.095 0.015 0.146v0.001c-0.001 0.444-0.36 0.804-0.805 0.804-0.057 0-0.112-0.006-0.165-0.017l0.005 0.001c-0.047-0.010-0.087-0.023-0.126-0.038l0.005 0.002c-0.008 0-0.018-0.005-0.027-0.008-0.097-0.042-0.181-0.098-0.252-0.166l0 0c-0.152-0.146-0.246-0.35-0.246-0.577 0-0.001 0-0.002 0-0.003v0zM11.401 19.612c-0.004 0.017-0.009 0.034-0.013 0.051-0.009 0.036-0.019 0.065-0.030 0.094l0.002-0.005c-0.009 0.024-0.018 0.044-0.028 0.063l0.002-0.004c-0.011 0.022-0.023 0.045-0.036 0.066s-0.027 0.043-0.042 0.063-0.024 0.030-0.037 0.045-0.039 0.045-0.061 0.065l-0.022 0.017c-0.091 0.079-0.2 0.139-0.321 0.171l-0.006 0.001c-0.060 0.016-0.128 0.025-0.198 0.025-0.443 0-0.803-0.359-0.803-0.802 0-0.228 0.095-0.435 0.248-0.581l0-0c0.071-0.068 0.154-0.124 0.245-0.163l0.005-0.002c0.010-0.004 0.020-0.005 0.029-0.008 0.033-0.014 0.073-0.026 0.113-0.035l0.005-0.001c0.048-0.010 0.103-0.016 0.16-0.016 0 0 0 0 0 0h-0c0.052 0 0.102 0.006 0.15 0.016l-0.005-0.001c0.018 0 0.036 0.008 0.053 0.012 0.033 0.009 0.060 0.017 0.086 0.027l-0.006-0.002c0.022 0.008 0.043 0.017 0.064 0.027 0.022 0.011 0.041 0.021 0.059 0.032l-0.002-0.001c0.022 0.012 0.046 0.025 0.066 0.040 0.207 0.147 0.34 0.385 0.34 0.655v0c-0.002 0.054-0.009 0.106-0.020 0.156l0.001-0.006zM14.597 20.924l-2.396-1.15c0.019-0.094 0.031-0.201 0.031-0.311v-0c-0.002-0.728-0.485-1.343-1.147-1.544l-0.011-0.003v-4.14c0.244-0.074 0.455-0.195 0.63-0.355l-0.001 0.001 2.64 1.268c-0.004 0.046-0.014 0.091-0.014 0.14 0.002 0.722 0.477 1.332 1.13 1.539l0.011 0.003v3.903c-0.366 0.115-0.668 0.344-0.871 0.645l-0.004 0.006zM15.951 22.621c-0.444 0-0.804-0.36-0.804-0.804 0-0 0-0.001 0-0.001v0c0-0.054 0.006-0.108 0.016-0.159l-0.001 0.005c0.008-0.039 0.018-0.072 0.030-0.104l-0.002 0.005c0.004-0.013 0.008-0.027 0.012-0.039 0.019-0.047 0.039-0.087 0.063-0.125l-0.002 0.003c0.055-0.088 0.124-0.163 0.203-0.223l0.002-0.001c0.026-0.019 0.055-0.038 0.085-0.055l0.005-0.003c0.011-0.006 0.021-0.012 0.032-0.017 0.022-0.012 0.049-0.024 0.077-0.035l0.005-0.002c0.022-0.008 0.044-0.015 0.066-0.020 0.017-0.006 0.039-0.011 0.061-0.016l0.004-0.001c0.044-0.009 0.094-0.014 0.145-0.015h0c0.055 0 0.11 0.006 0.162 0.016l-0.005-0.001c0.043 0.010 0.079 0.021 0.114 0.034l-0.006-0.002c0.011 0.004 0.023 0.006 0.034 0.011 0.094 0.039 0.175 0.091 0.245 0.156l-0.001-0.001c0.024 0.024 0.047 0.050 0.069 0.076l0.001 0.002c0.027 0.032 0.052 0.067 0.074 0.105l0.002 0.004 0.006 0.011c0.017 0.030 0.035 0.066 0.050 0.103l0.002 0.006c0.006 0.015 0.010 0.032 0.015 0.047 0.008 0.022 0.016 0.052 0.023 0.081l0.001 0.006c0.009 0.045 0.014 0.097 0.015 0.15v0c-0.004 0.44-0.359 0.795-0.799 0.798h-0zM19.627 19.457c0 0.118 0.013 0.233 0.037 0.344l-0.002-0.011-2.348 1.146c-0.195-0.297-0.476-0.522-0.807-0.643l-0.011-0.004v-3.942c0.633-0.229 1.078-0.824 1.080-1.523v-0c0-0.041-0.009-0.078-0.012-0.118l2.615-1.273c0.183 0.164 0.406 0.287 0.652 0.354l0.011 0.002v4.104c-0.702 0.186-1.212 0.814-1.215 1.561v0zM21.25 20.262c-0.063-0.001-0.123-0.008-0.181-0.022l0.006 0.001c-0.079-0.018-0.149-0.046-0.213-0.082l0.004 0.002c-0.016-0.009-0.034-0.017-0.050-0.027s-0.042-0.031-0.063-0.047-0.035-0.028-0.052-0.043-0.034-0.035-0.050-0.052-0.032-0.038-0.047-0.057-0.026-0.037-0.038-0.056c-0.013-0.019-0.026-0.042-0.037-0.066l-0.002-0.004c-0.009-0.018-0.018-0.036-0.026-0.056-0.010-0.025-0.020-0.056-0.028-0.088l-0.001-0.005c-0.004-0.017-0.010-0.032-0.013-0.050-0.010-0.046-0.015-0.098-0.015-0.152v-0c0-0.017 0.004-0.034 0.005-0.051 0.017-0.271 0.167-0.504 0.385-0.636l0.004-0.002c0.050-0.030 0.109-0.057 0.171-0.076l0.006-0.002 0.031-0.010c0.061-0.017 0.131-0.028 0.203-0.029h0c0.061 0 0.121 0.007 0.179 0.021l-0.005-0.001 0.031 0.010c0.052 0.014 0.096 0.029 0.138 0.049l-0.005-0.002 0.019 0.011c0.050 0.025 0.093 0.052 0.133 0.083l-0.002-0.001c0.045 0.036 0.084 0.074 0.12 0.115l0.001 0.001c0.12 0.139 0.193 0.322 0.193 0.521 0 0.442-0.359 0.801-0.801 0.801-0.001 0-0.003 0-0.004 0h0z"></path>
</svg>
